<svg width="17" height="16" viewBox="0 0 17 16" fill="none" xmlns="http://www.w3.org/2000/svg">
<rect x="0.5" width="16" height="16" fill="white" fill-opacity="0.01"/>
<path fill-rule="evenodd" clip-rule="evenodd" d="M10.5007 1.99999V1.33332C10.5007 0.965133 10.7991 0.666656 11.1673 0.666656C11.5355 0.666656 11.834 0.965133 11.834 1.33332V1.99999H13.1673C14.2719 1.99999 15.1673 2.89542 15.1673 3.99999V6.66666V13.3333C15.1673 14.4379 14.2719 15.3333 13.1673 15.3333H3.83398C2.72941 15.3333 1.83398 14.4379 1.83398 13.3333V6.66666V3.99999C1.83398 2.89542 2.72941 1.99999 3.83398 1.99999H5.16732V1.33332C5.16732 0.965133 5.46579 0.666656 5.83398 0.666656C6.20217 0.666656 6.50065 0.965133 6.50065 1.33332V1.99999H10.5007ZM3.16732 7.33332V13.3333C3.16732 13.7015 3.46579 14 3.83398 14H13.1673C13.5355 14 13.834 13.7015 13.834 13.3333V7.33332H3.16732ZM13.834 5.99999H3.16732V3.99999C3.16732 3.6318 3.46579 3.33332 3.83398 3.33332H5.16732V3.99999C5.16732 4.36818 5.46579 4.66666 5.83398 4.66666C6.20217 4.66666 6.50065 4.36818 6.50065 3.99999V3.33332H10.5007V3.99999C10.5007 4.36818 10.7991 4.66666 11.1673 4.66666C11.5355 4.66666 11.834 4.36818 11.834 3.99999V3.33332H13.1673C13.5355 3.33332 13.834 3.6318 13.834 3.99999V5.99999Z" fill="#7f7f7f"/>
</svg>
