<svg width="17" height="16" viewBox="0 0 17 16" fill="none" xmlns="http://www.w3.org/2000/svg">
<rect x="0.5" width="16" height="16" fill="white" fill-opacity="0.01"/>
<path fill-rule="evenodd" clip-rule="evenodd" d="M5.44346 12L2.97206 14.4714C2.55208 14.8914 1.83398 14.5939 1.83398 14V3.33334C1.83398 2.22877 2.72941 1.33334 3.83398 1.33334H13.1673C14.2719 1.33334 15.1673 2.22877 15.1673 3.33334V10C15.1673 11.1046 14.2719 12 13.1673 12H5.44346ZM3.16732 12.3905L4.69591 10.8619C4.82094 10.7369 4.99051 10.6667 5.16732 10.6667H13.1673C13.5355 10.6667 13.834 10.3682 13.834 10V3.33334C13.834 2.96515 13.5355 2.66668 13.1673 2.66668H3.83398C3.46579 2.66668 3.16732 2.96515 3.16732 3.33334V12.3905Z" fill="#7f7f7f"/>
</svg>
