<svg width="16" height="16" viewBox="0 0 16 16" fill="none" xmlns="http://www.w3.org/2000/svg">
<rect width="16" height="16" fill="white" fill-opacity="0.01"/>
<path fill-rule="evenodd" clip-rule="evenodd" d="M6.66683 0.666748H9.3335C10.3986 0.666748 11.2693 1.49936 11.3301 2.54923L11.3335 2.66675V3.33341H12.6668H14.0002C14.3684 3.33341 14.6668 3.63189 14.6668 4.00008C14.6668 4.36827 14.3684 4.66675 14.0002 4.66675H13.3335V13.3334C13.3335 14.3985 12.5009 15.2692 11.451 15.33L11.3335 15.3334H4.66683C3.60171 15.3334 2.73106 14.5008 2.67022 13.4509L2.66683 13.3334V4.66675H2.00016C1.63197 4.66675 1.3335 4.36827 1.3335 4.00008C1.3335 3.63189 1.63197 3.33341 2.00016 3.33341H3.3335H4.66683V2.66675C4.66683 1.60163 5.49944 0.730974 6.54931 0.670143L6.66683 0.666748ZM5.33407 4.66675L5.3335 4.66675L5.33293 4.66675H4.00016V13.3334C4.00016 13.6753 4.25752 13.9571 4.58908 13.9956L4.66683 14.0001H11.3335C11.6754 14.0001 11.9572 13.7427 11.9957 13.4112L12.0002 13.3334V4.66675H10.6674L10.6668 4.66675L10.6663 4.66675H5.33407ZM10.0002 3.33341H6.00016V2.66675L6.00465 2.589C6.04316 2.25744 6.32494 2.00008 6.66683 2.00008H9.3335L9.41124 2.00457C9.7428 2.04308 10.0002 2.32486 10.0002 2.66675V3.33341ZM6.00016 7.33341V11.3334C6.00016 11.7016 6.29864 12.0001 6.66683 12.0001C7.03502 12.0001 7.3335 11.7016 7.3335 11.3334V7.33341C7.3335 6.96522 7.03502 6.66675 6.66683 6.66675C6.29864 6.66675 6.00016 6.96522 6.00016 7.33341ZM8.66683 11.3334V7.33341C8.66683 6.96522 8.96531 6.66675 9.3335 6.66675C9.70169 6.66675 10.0002 6.96522 10.0002 7.33341V11.3334C10.0002 11.7016 9.70169 12.0001 9.3335 12.0001C8.96531 12.0001 8.66683 11.7016 8.66683 11.3334Z" fill="#FF642F"/>
</svg>
