<svg width="25" height="24" viewBox="0 0 25 24" fill="none" xmlns="http://www.w3.org/2000/svg">
<rect x="0.0869141" width="24" height="24" fill="white" fill-opacity="0.01"/>
<path fill-rule="evenodd" clip-rule="evenodd" d="M20.9804 5.55395L12.087 11.7793L3.19358 5.55395C3.35896 5.22692 3.69904 5 4.087 5H20.087C20.475 5 20.815 5.22692 20.9804 5.55395ZM23.087 5.98327C23.0871 5.99295 23.0871 6.00264 23.087 6.01231V18C23.087 19.6523 21.7393 21 20.087 21H4.087C2.43471 21 1.087 19.6523 1.087 18V6.01225C1.08687 6.00241 1.08689 5.99256 1.08705 5.9827C1.09641 4.33832 2.44048 3 4.087 3H20.087C21.7337 3 23.0779 4.33863 23.087 5.98327ZM3.087 7.92066V18C3.087 18.5477 3.53928 19 4.087 19H20.087C20.6347 19 21.087 18.5477 21.087 18V7.92066L12.6605 13.8192C12.3161 14.0603 11.8579 14.0603 11.5135 13.8192L3.087 7.92066Z" fill="#7F7F7F"/>
</svg>
